PathFileType	4	(X/Y/Z)	OpenSim_Sub08_CSStiffKnee_Gyro.trc
DataRate	CameraRate	NumFrames	NumMarkers	Units	OrigDataRate	OrigDataStartFrame	OrigNumFrames
100	100	37	8	m	100	4622	5282
Frame#	Time	torso_imu_offset_imu	pelvis_imu_offset_imu	tibia_r_imu_offset_imu	femur_r_imu_offset_imu	tibia_l_imu_offset_imu	femur_l_imu_offset_imu	toes_r_imu_offset_imu	toes_l_imu_offset_imu
				X1	Y1	Z1	X2	Y2	Z2	X3	Y3	Z3	X4	Y4	Z4	X5	Y5	Z5	X6	Y6	Z6	X7	Y7	Z7	X8		Y8	Z8	

4622	46.21000000	0.05128226	-0.09715127	-0.06150920	0.41316286	-0.12561108	-0.00567630	0.60013642	0.32015907	1.55674333	-0.12997592	-0.03812442	0.67394056	0.28987776	-0.12132719	0.85794357	0.28988158	-0.07115849	0.33125567	-0.32753412	0.99386469	1.22114828	0.07725298	-0.09913461	0.37771854
4623	46.22000000	0.03613518	-0.11705947	-0.04688665	0.41214748	-0.10109849	0.01026428	0.50132420	0.30443218	1.52719487	-0.14952301	-0.03767449	0.59792481	0.33093558	-0.11495073	0.85249974	0.37881693	-0.04867385	0.34126326	-0.36552421	0.93402164	1.17168460	0.08020637	-0.13973975	0.41077052
4624	46.23000000	0.01903990	-0.12604571	-0.04142457	0.40619797	-0.07756133	0.03169133	0.42795292	0.28202709	1.47445344	-0.11419053	-0.04941198	0.52691059	0.34728743	-0.10773464	0.82863033	0.45553695	-0.02682400	0.35326294	-0.41672091	0.90899376	1.07894918	0.03495042	-0.12909601	0.45801812
4625	46.24000000	0.01447971	-0.10999667	-0.04790433	0.40336303	-0.05982707	0.04348467	0.36514724	0.26620921	1.40514663	-0.03309738	-0.03250133	0.44732609	0.36448471	-0.09640732	0.84225956	0.51162638	-0.01150689	0.36943513	-0.47735353	0.97574894	0.97882856	-0.07075131	-0.14771344	0.44009075
4626	46.25000000	0.02554362	-0.08680498	-0.04973650	0.39193879	-0.03834687	0.05706012	0.29127325	0.25220505	1.32669968	0.05671179	-0.03015809	0.37450767	0.35585811	-0.06693869	0.87635145	0.53505051	0.00231930	0.39447606	-0.47010736	1.05958347	0.86970632	0.09382608	-0.22991498	0.35332225
4627	46.26000000	0.04407443	-0.06163116	-0.04776466	0.37756133	-0.01568643	0.06503185	0.17968752	0.22901107	1.26019640	0.14130595	-0.04590407	0.32724296	0.35833034	-0.07038655	0.87086540	0.51781307	0.01883357	0.42138825	-0.43946442	1.05478657	0.74195280	0.14288989	-0.30113540	0.35639961
4628	46.27000000	0.06811789	-0.02935237	-0.04265035	0.37064228	0.00265935	0.06142160	0.03856006	0.20056180	1.20111045	0.22843140	-0.04706450	0.29299122	0.38175076	-0.06637048	0.84343494	0.46423157	0.01772207	0.45683781	-0.45208797	1.02872626	0.64299538	0.01818188	-0.33803292	0.40714367
4629	46.28000000	0.09028374	0.00969201	-0.04370443	0.38093855	0.02182517	0.04838086	-0.02828100	0.16976235	1.11397104	0.33772543	-0.05302380	0.24665839	0.39134836	-0.05375864	0.84318772	0.39134114	0.00162480	0.50660477	-0.46772820	0.96617327	0.57205882	0.04876296	-0.42478392	0.40357431
4630	46.29000000	0.09602076	0.04585870	-0.06149818	0.41345951	0.03184985	0.03063757	-0.02738267	0.13443381	1.02640139	0.41662899	-0.03934742	0.19710522	0.39620019	-0.04539394	0.87021967	0.31147261	-0.01410338	0.55310960	-0.44624448	0.86093828	0.50599660	0.07055067	-0.47151414	0.38757544
4631	46.30000000	0.10415334	0.08658730	-0.07075746	0.44472917	0.02801554	0.01224373	-0.04776605	0.10443455	0.93919102	0.42403174	-0.03078165	0.14164286	0.40766325	-0.03168995	0.88895508	0.23163205	-0.02762765	0.58753757	-0.43236799	0.74926137	0.45601391	0.10442274	-0.51091587	0.35705616
4632	46.31000000	0.11035164	0.12413136	-0.06063297	0.46559843	0.01696610	-0.00251786	-0.04339112	0.06680238	0.82043478	0.37946480	-0.05616449	0.07530222	0.44297805	-0.02545100	0.87341837	0.16560420	-0.03320713	0.61285911	-0.42527381	0.63463061	0.41987402	0.13374576	-0.59357074	0.36232642
4633	46.32000000	0.10294572	0.15448715	-0.05163979	0.47983424	0.00637492	-0.00694154	0.00906667	0.03411533	0.68935247	0.31678832	-0.08432728	0.00265939	0.48276892	-0.03262956	0.88517944	0.13957517	-0.01749057	0.63272388	-0.34026939	0.54577106	0.38770976	0.12124248	-0.66322519	0.34151968
4634	46.33000000	0.08349321	0.18200743	-0.05423536	0.48026000	0.00118097	-0.00554549	0.05313818	0.01650457	0.55587034	0.26518344	-0.09611853	-0.05967465	0.51341001	-0.02162575	0.93367276	0.16395939	0.00374668	0.64929263	-0.22363951	0.41600739	0.34337232	0.11052556	-0.72601477	0.32536162
4635	46.34000000	0.05037718	0.20264401	-0.04673275	0.47164239	0.00170044	0.00411937	0.04835137	-0.01588936	0.43107692	0.22292544	-0.08823449	-0.11141440	0.53430190	-0.00394193	0.98008926	0.21593477	0.02686335	0.66077572	-0.19556496	0.25352139	0.29170446	0.11586304	-0.81807797	0.31575759
4636	46.35000000	0.01856320	0.22247016	-0.03918051	0.45521808	0.00111964	0.01230426	0.08558797	-0.05155374	0.28490122	0.17021956	-0.09143302	-0.14840736	0.54908438	0.00309720	0.99905232	0.27666691	0.05871153	0.66681488	-0.18828354	0.12296282	0.23406935	0.07319942	-0.94054433	0.33177516
4637	46.36000000	-0.01117346	0.23855684	-0.04486934	0.42617028	-0.01708776	0.01467848	0.15164564	-0.09337866	0.10120806	0.09172621	-0.10218619	-0.15531541	0.55495447	0.00763274	1.01920658	0.34776208	0.09342829	0.65825702	-0.19768964	-0.03200855	0.16370162	0.01265378	-1.03935933	0.35555439
4638	46.37000000	-0.03914110	0.25576298	-0.04947565	0.37141192	-0.05774387	0.01155384	0.07753285	-0.14125310	-0.07023686	-0.01913116	-0.10202060	-0.15020013	0.57369763	0.01320885	1.08177800	0.42209688	0.12041355	0.62476890	-0.20784954	-0.17901589	0.09700502	0.01011272	-1.17201398	0.34994003
4639	46.38000000	-0.06731375	0.26513624	-0.07744908	0.30941843	-0.12050690	-0.00339846	-0.00675231	-0.19486669	-0.25946439	-0.12699332	-0.09244605	-0.13869395	0.61169503	0.02400472	1.15790379	0.48446514	0.14409599	0.59860875	-0.17996996	-0.33549003	0.03271029	0.01802586	-1.29705264	0.38367861
4640	46.39000000	-0.07953851	0.27816244	-0.08856240	0.25858836	-0.20932552	-0.01411625	-0.01515113	-0.26357128	-0.45926108	-0.16762395	-0.11640534	-0.13523771	0.65925101	0.02809838	1.22674196	0.53908242	0.17817372	0.58922873	-0.13449001	-0.51446862	-0.03636030	0.01480372	-1.44554948	0.41543026
4641	46.40000000	-0.07937745	0.30673926	-0.07144245	0.21956761	-0.30815653	-0.00869905	0.00640584	-0.31893483	-0.62437217	-0.15031815	-0.18388747	-0.15443047	0.69006143	0.01454649	1.29648812	0.56513991	0.23036025	0.57293471	0.10274289	-0.69419626	-0.11480610	-0.08902222	-1.62850708	0.46998922
4642	46.41000000	-0.08578330	0.33635316	-0.09086055	0.20472180	-0.39043913	0.00588945	0.15047554	-0.37802116	-0.77708486	-0.15136360	-0.25129066	-0.20318704	0.72138351	-0.01160174	1.39505067	0.56457356	0.28452892	0.52540256	-0.03688028	-0.67843985	-0.04395282	-0.19895558	-1.80755808	0.54211174
4643	46.42000000	-0.08074185	0.36340535	-0.12335747	0.20801179	-0.45741283	0.03038238	0.41533538	-0.45715191	-0.93573990	-0.17958947	-0.26953989	-0.26774712	0.76651089	-0.02034205	1.52534857	0.54725148	0.33271482	0.44723380	0.71629461	-1.34734720	-0.25908439	-0.20601696	-1.99768722	0.60662819
4644	46.43000000	-0.06329906	0.39676206	-0.15876434	0.20700540	-0.47166716	0.05787405	0.61306205	-0.60745570	-1.08520418	-0.16614942	-0.27483164	-0.35409836	0.84652330	-0.03324243	1.68123880	0.52176138	0.39169405	0.35753298	1.86334522	-2.18600384	-0.68445889	-0.17045108	-2.13978617	0.67231262
4645	46.44000000	-0.02674154	0.44421140	-0.18290482	0.21929862	-0.38449390	0.09194693	0.89329516	-0.80483693	-1.20676389	-0.06862087	-0.33729319	-0.47153970	0.93949130	-0.04634373	1.83075410	0.46005462	0.45715786	0.25428866	1.47769989	-1.89833831	-0.51694355	0.02005317	-2.41956396	0.71040207
4646	46.45000000	0.01243985	0.48859884	-0.15870439	0.23980312	-0.22735199	0.13825786	0.54624320	-0.81200008	-0.90829601	0.07706590	-0.39393262	-0.61888159	0.94698937	-0.06254879	1.97453654	0.35137463	0.51159013	0.12659676	0.17217772	-2.25936255	-0.21888942	-0.10742271	-2.74205210	0.75974559
4647	46.46000000	0.04372013	0.52864224	-0.06507762	0.17766578	-0.05718864	0.18841726	-0.73778145	-0.69003839	-0.24365095	0.20098428	-0.40303394	-0.77462020	0.90908907	-0.09773985	2.14392236	0.27332573	0.55329976	-0.03642519	1.01111484	-2.80502210	-0.50780379	-0.50597844	-3.08446688	0.88735780
4648	46.47000000	0.09309136	0.57590095	0.06796336	0.03403078	0.11323456	0.23823960	-0.62222765	-0.72246475	-0.07117968	0.36386436	-0.38134385	-0.89892974	0.89815883	-0.12832569	2.34691077	0.22380634	0.60577972	-0.19865798	1.41151568	-2.36617067	-0.70379079	-0.53492952	-3.52178451	0.92877495
4649	46.48000000	0.16670155	0.64000346	0.18215919	-0.16138813	0.27936526	0.30971783	0.69448218	-0.77304275	-0.47081646	0.51916039	-0.32627792	-0.92198183	0.93569349	-0.17238815	2.55415820	0.12315741	0.65152987	-0.38424338	0.34574844	-2.06313946	-0.68729091	-0.68423597	-4.04068808	0.93106476
4650	46.49000000	0.23401470	0.72807334	0.27310201	-0.46265839	0.35508526	0.38844656	1.24593443	-0.70631837	-1.09175974	0.47182556	-0.22912848	-0.75779608	1.03738184	-0.23780157	2.69853532	-0.03322736	0.69225303	-0.55323963	0.16367932	-1.84394888	-0.64498733	-1.10374410	-4.67073579	0.91313799
4651	46.50000000	0.31204353	0.81793045	0.26082328	-0.77747120	0.22238106	0.46711167	1.59713999	-0.56724616	-1.66560032	0.31077873	-0.13395318	-0.41349198	1.17555066	-0.35464306	2.83812838	-0.19670272	0.75097111	-0.70136473	0.11094292	-1.54963954	-0.36623341	-1.49907486	-5.55628063	0.58893039
4652	46.51000000	0.35751168	0.88371350	-0.14687487	-0.96583831	-0.08799525	0.56235902	2.14178537	-0.44973651	-1.81893074	0.28553976	-0.14643280	-0.05012526	1.65827650	-0.35458344	2.97505789	-0.39724362	0.81145964	-0.91230307	0.28677214	-1.38887783	-0.15282327	-1.43652069	-6.52771257	-0.08149332
4653	46.52000000	0.30272049	0.89792694	-0.49758342	-1.00195681	-0.39462817	0.57890050	2.27359928	-0.45572830	-1.54095286	0.49469011	-0.20580160	0.16532926	2.22926957	-0.21652944	3.07971005	-0.73553531	0.87171259	-1.04902037	-0.12782798	-1.30739725	-0.06822113	-0.20413650	-7.19997160	-0.65312438
4654	46.53000000	0.13473325	0.81333974	-0.38174407	-0.85018682	-0.54006744	0.47795096	1.66869587	-0.58205802	-1.17856006	0.73473931	-0.11066042	0.07917596	2.40706010	-0.13934343	3.22860541	-1.09899102	0.95198049	-1.23378233	-0.38523846	-1.29832041	-0.03693021	0.55813632	-7.48230466	-0.67102967
4655	46.54000000	-0.01260873	0.64995986	-0.13423978	-0.51049766	-0.52109920	0.33777365	0.53959410	-0.73551110	-0.99233627	0.61772392	0.03493689	-0.31088797	2.49359179	-0.05373898	3.32751617	-1.18466959	1.00188995	-1.61224145	-0.42179329	-1.35365575	0.00233634	0.96886073	-7.24772089	-0.09854520
4656	46.55000000	-0.06384658	0.46714034	-0.04905392	-0.13273704	-0.40107687	0.23158069	-0.58759564	-0.79210669	-0.86155599	0.02498889	-0.00855352	-0.79405295	2.36996373	-0.10176216	3.19474577	-1.01055723	1.01837807	-1.97500624	-0.35903277	-1.32155959	-0.05146553	2.06717028	-6.84706101	0.83106859
4657	46.56000000	-0.04096596	0.30734967	-0.11572792	0.13112219	-0.21809506	0.19010322	-1.30734692	-0.79000888	-0.63219189	-0.74671548	-0.20426093	-1.17467085	1.81238728	-0.17597265	2.96752637	-0.72604701	1.06082026	-2.26207998	-0.64772427	-1.37991477	-0.02177848	2.09432502	-6.56933430	1.72628820
4658	46.57000000	0.00046978	0.12683784	-0.14524202	0.27522503	0.00142211	0.19822829	-1.54719082	-0.72533418	-0.45641557	-1.22152973	-0.42919203	-1.30402539	1.05977539	-0.12820062	2.66089511	-0.48205588	1.09451889	-2.36761347	-0.38997652	-0.97911795	0.11470982	2.92570400	-6.02709577	2.30006009
